<svg xmlns="http://www.w3.org/2000/svg" viewBox="0 0 64 64" width="64" height="64">
  <defs>
    <!-- Brand Gradient: Sky Cyan to Dental Emerald -->
    <linearGradient id="crest-gradient" x1="0%" y1="0%" x2="100%" y2="100%">
      <stop offset="0%" stop-color="#0284c7" />
      <stop offset="55%" stop-color="#029986" />
      <stop offset="100%" stop-color="#08c068" />
    </linearGradient>

    <!-- Tooth Bright Pearl Gradient -->
    <linearGradient id="tooth-pearl" x1="20%" y1="0%" x2="80%" y2="100%">
      <stop offset="0%" stop-color="#ffffff" />
      <stop offset="70%" stop-color="#f0fdf9" />
      <stop offset="100%" stop-color="#e0f4fc" />
    </linearGradient>

    <!-- Radiance Sparkle Gradient -->
    <linearGradient id="sparkle-glow" x1="0%" y1="0%" x2="100%" y2="100%">
      <stop offset="0%" stop-color="#ffffff" />
      <stop offset="100%" stop-color="#bae6fd" />
    </linearGradient>

    <!-- Drop Shadow for Depth -->
    <filter id="tooth-shadow" x="-20%" y="-20%" width="140%" height="140%">
      <feDropShadow dx="0" dy="2" stdDeviation="1.5" flood-color="#022a27" flood-opacity="0.32" />
    </filter>
  </defs>

  <!-- Background App Tile / Shield Badge -->
  <rect width="64" height="64" rx="15" fill="url(#crest-gradient)" />

  <!-- Crisp Inner Rim Glow -->
  <rect x="1" y="1" width="62" height="62" rx="14" fill="none" stroke="#ffffff" stroke-width="1.2" stroke-opacity="0.3" />

  <!-- Symmetrical, Elegant Tooth Silhouette -->
  <path
    d="M 21.5 16.5
       C 15.5 16.5, 12 20.5, 12 26
       C 12 30.5, 14 34.5, 16.5 38.8
       C 18.8 42.5, 20.6 47, 21.8 51
       C 22.5 53.2, 25.2 53.2, 25.9 51
       C 27.2 46.5, 28.8 42, 32 42
       C 35.2 42, 36.8 46.5, 38.1 51
       C 38.8 53.2, 41.5 53.2, 42.2 51
       C 43.4 47, 45.2 42.5, 47.5 38.8
       C 50 34.5, 52 30.5, 52 26
       C 52 20.5, 48.5 16.5, 42.5 16.5
       C 38.2 16.5, 35.2 19.5, 32 19.5
       C 28.8 19.5, 25.8 16.5, 21.5 16.5 Z"
    fill="url(#tooth-pearl)"
    filter="url(#tooth-shadow)"
  />

  <!-- Subtle Polish Shimmer Arc -->
  <path
    d="M 18 24.5
       C 16.8 27.5, 17.2 31.5, 19 35"
    fill="none"
    stroke="#ffffff"
    stroke-width="1.8"
    stroke-linecap="round"
    stroke-opacity="0.85"
  />

  <!-- Brilliant Dental Crest Sparkle (4-point Diamond Star) -->
  <path
    d="M 46.5 7.5
       C 46.5 11.5, 48 13.5, 52 13.5
       C 48 13.5, 46.5 15.5, 46.5 19.5
       C 46.5 15.5, 45 13.5, 41 13.5
       C 45 13.5, 46.5 11.5, 46.5 7.5 Z"
    fill="url(#sparkle-glow)"
  />
  <circle cx="46.5" cy="13.5" r="1.3" fill="#ffffff" />

  <!-- Gentle secondary highlight starlet -->
  <circle cx="15.5" cy="19.5" r="1" fill="#ffffff" opacity="0.9" />
</svg>